PathFileType	4	(X/Y/Z)	A:\Common\BMMB\PROJECTS\STRATO\DataSTRATO\DataSTRATO\0021~016 ID\0021~aa~ID 016\Standing_STRATO_ID_16.trc
DataRate	CameraRate	NumFrames	NumMarkers	Units	OrigDataRate	OrigDataStartFrame	OrigNumFrames
250.00	250.00	6	22	mm	250.00	552	3281
Frame#	Time	r.should			l.should			c7			r.asis			l.asis			sacrum			r.bar1			l.bar1			r.knee1			l.knee1			r.bar2			r.mall			l.bar2			l.mall			r.met			r.heel			l.heel			l.met			r.mallm			l.mallm			r.kneem			l.kneem			
		X1	Y1	Z1	X2	Y2	Z2	X3	Y3	Z3	X4	Y4	Z4	X5	Y5	Z5	X6	Y6	Z6	X7	Y7	Z7	X8	Y8	Z8	X9	Y9	Z9	X10	Y10	Z10	X11	Y11	Z11	X12	Y12	Z12	X13	Y13	Z13	X14	Y14	Z14	X15	Y15	Z15	X16	Y16	Z16	X17	Y17	Z17	X18	Y18	Z18	X19	Y19	Z19	X20	Y20	Z20	X21	Y21	Z21	X22	Y22	Z22	

551	2.204000	338.993847	1331.111670	304.689288	41.473266	1347.538114	300.188035	199.575156	1389.164686	386.636138	296.818495	890.112877	152.559862	56.339566	878.320217	171.840638	193.000197	952.407122	385.160983	391.777396	815.534592	239.772350	-10.974367	791.912258	269.471109	351.623774	465.445727	280.792654	13.624128	468.046337	355.045319	337.880105	414.126694	276.111603	328.433812	70.384279	304.938823	10.648083	423.957258	364.739329	48.989080	53.050108	337.573111	295.237541	36.749095	163.579717	286.501169	37.030056	362.763017	96.023515	31.896546	401.379406	75.636044	36.143523	196.520433	243.709922	78.637742	299.329221	129.658699	79.451479	329.978853	208.165497	440.680146	323.102742	160.781011	445.457339	362.785757	
552	2.208000	338.985860	1331.122637	304.699481	41.454691	1347.543597	300.250947	199.566200	1389.168739	386.640817	296.824515	890.112400	152.580380	56.333452	878.326178	171.850041	192.992210	952.406347	385.190368	391.795993	815.548539	239.774391	-10.971362	791.910350	269.481122	351.620078	465.437531	280.808151	13.614729	468.043476	355.094373	337.884188	414.117187	276.123583	328.433216	70.380569	304.934919	10.772973	423.965633	364.601672	49.050458	53.628549	336.591154	295.238316	36.757644	163.598716	286.498040	37.054710	362.788737	96.028157	31.895749	401.375204	75.643008	36.127940	196.508557	243.707776	78.645684	299.343824	129.655391	79.440139	329.986274	208.165258	440.671057	323.113978	160.770282	445.457101	362.784147	
553	2.212000	338.973492	1331.137180	304.709852	41.438840	1347.548127	300.275862	199.556261	1389.175773	386.664659	296.832740	890.121400	152.592555	56.332678	878.335118	171.872601	192.983136	952.411532	385.222554	391.792685	815.547585	239.772573	-10.976951	791.914105	269.500762	351.628780	465.441465	280.809641	13.619512	468.038559	355.084389	337.886989	414.134026	276.114941	328.421772	70.372716	304.939389	10.763450	423.966110	364.633799	48.921201	52.800655	337.990105	295.242667	36.754884	163.602859	286.497086	37.047401	362.804472	96.020624	31.890623	401.382923	75.647644	36.102910	196.490705	243.703678	78.651309	299.368739	129.633263	79.424821	329.978287	208.165839	440.673292	323.125005	160.767779	445.464253	362.805158	
554	2.216000	338.975072	1331.152916	304.707944	41.416638	1347.542763	300.283015	199.544862	1389.175057	386.667103	296.831965	890.128553	152.559847	56.336664	878.340721	171.871111	192.981452	952.408314	385.233045	391.795576	815.563560	239.756986	-10.965024	791.912198	269.539297	351.618916	465.434849	280.833662	13.607563	468.028307	355.095863	337.892711	414.143085	276.122093	328.425825	70.369363	304.947734	10.714362	423.968673	364.679515	48.966810	53.092737	337.504208	295.238554	36.746379	163.579404	286.485493	37.040353	362.789869	96.020237	31.897791	401.392490	75.646311	36.081977	196.473688	243.706435	78.632727	299.366564	129.641116	79.431176	329.973102	208.170176	440.677464	323.133171	160.765827	445.467353	362.810612	
555	2.220000	338.965952	1331.153750	304.718047	41.411389	1347.544909	300.260484	199.527025	1389.189720	386.660039	296.835929	890.132248	152.547881	56.349933	878.338218	171.890318	192.974478	952.416658	385.233253	391.795933	815.551996	239.767686	-10.964984	791.906178	269.526422	351.605535	465.432674	280.838579	13.597144	468.039602	355.040789	337.891757	414.123297	276.147753	328.423500	70.371613	304.951310	10.794638	423.993111	364.608884	49.043514	53.626798	336.608022	295.246899	36.740568	163.605943	286.480784	37.050657	362.781078	96.010663	31.894028	401.389331	75.636904	36.073189	196.462527	243.714035	78.633495	299.365789	129.652008	79.456143	329.979748	208.150998	440.688431	323.141634	160.761446	445.472598	362.817049	
556	2.224000	338.957459	1331.157684	304.711819	41.405000	1347.547650	300.209463	199.519962	1389.202952	386.671901	296.825051	890.133142	152.568534	56.348346	878.331065	171.910211	192.969948	952.411652	385.243416	391.792476	815.551877	239.738405	-10.946820	791.910529	269.484699	351.605892	465.428263	280.827999	13.591067	468.071163	355.059773	337.881565	414.122015	276.154786	328.422487	70.370898	304.946572	10.805368	423.998773	364.606380	48.948437	52.774865	338.012815	295.233518	36.743380	163.598150	286.494792	37.053972	362.788200	96.016541	31.897008	401.374340	75.623464	36.062542	196.454972	243.713602	78.649409	299.369812	129.645661	79.447538	329.970002	208.159864	440.684974	323.136479	160.752147	445.468813	362.826049	
